<svg width="960" height="280" viewBox="0 0 960 280" fill="none" xmlns="http://www.w3.org/2000/svg">
  <defs>
    <linearGradient id="zg-gradient" x1="0" y1="0" x2="1" y2="1">
      <stop offset="0" stop-color="#7B61FF" />
      <stop offset="1" stop-color="#53E0FF" />
    </linearGradient>
    <linearGradient id="zg-glow" x1="0" y1="0" x2="1" y2="0">
      <stop offset="0" stop-color="#7B61FF" stop-opacity="0.35" />
      <stop offset="1" stop-color="#53E0FF" stop-opacity="0.35" />
    </linearGradient>
    <radialGradient id="zg-ring" cx="0" cy="0" r="1" gradientUnits="userSpaceOnUse" gradientTransform="translate(140 140) rotate(90) scale(80)">
      <stop offset="0" stop-color="#0A0B1A" />
      <stop offset="0.6" stop-color="#0A0B1A" />
      <stop offset="1" stop-color="#0F1126" />
    </radialGradient>
  </defs>
  <rect width="960" height="280" rx="44" fill="#0A0B1A" />
  <rect x="28" y="28" width="904" height="224" rx="34" fill="#0F1126" stroke="url(#zg-glow)" />
  <circle cx="140" cy="140" r="78" fill="url(#zg-gradient)" />
  <circle cx="140" cy="140" r="62" fill="#0A0B1A" />
  <circle cx="140" cy="140" r="48" fill="url(#zg-ring)" stroke="#27315A" stroke-width="2" />
  <path d="M118 140C118 127.3 128.3 117 141 117H172C179.7 117 186 123.3 186 131V149C186 156.7 179.7 163 172 163H141C128.3 163 118 152.7 118 140Z" fill="#0A0B1A" stroke="#53E0FF" stroke-width="3.5" />
  <path d="M129 140H171" stroke="#7B61FF" stroke-width="3.5" stroke-linecap="round" />
  <circle cx="188" cy="140" r="5" fill="#53E0FF" />
  <text x="260" y="145" fill="#F6F5FF" font-size="56" font-family="Space Grotesk, Arial, sans-serif" font-weight="700">
    ZeroGrav Prompt Vault
  </text>
  <text x="262" y="185" fill="#B8B6D9" font-size="24" font-family="Space Grotesk, Arial, sans-serif">
    Immersive prompt library for vibe coders
  </text>
</svg>
